<?xml version="1.0" standalone="no"?>
<!DOCTYPE svg PUBLIC "-//W3C//DTD SVG 20010904//EN"
 "http://www.w3.org/TR/2001/REC-SVG-20010904/DTD/svg10.dtd">
<svg version="1.0" xmlns="http://www.w3.org/2000/svg"
 width="200.000000pt" height="200.000000pt" viewBox="0 0 200.000000 200.000000"
 preserveAspectRatio="xMidYMid meet">

<g transform="translate(0.000000,200.000000) scale(0.100000,-0.100000)"
fill="#000000" stroke="none">
<path d="M837 1526 c-131 -37 -173 -125 -165 -351 5 -131 19 -178 66 -229 45
-47 85 -59 227 -64 166 -6 233 7 285 55 62 55 75 104 75 273 0 200 -26 261
-130 306 -53 23 -288 30 -358 10z m173 -141 c0 -24 2 -25 74 -25 80 0 100 -11
72 -38 -16 -16 -18 -16 -30 1 -10 12 -27 17 -65 17 l-51 0 0 -140 0 -140 35 0
c19 0 35 -4 35 -10 0 -6 -33 -10 -80 -10 -47 0 -80 4 -80 10 0 6 16 10 35 10
l35 0 0 140 0 140 -51 0 c-38 0 -55 -5 -65 -17 -12 -17 -14 -17 -30 -1 -28 27
-8 38 72 38 72 0 74 1 74 25 0 14 5 25 10 25 6 0 10 -11 10 -25z m-118 -146
c20 -45 25 -66 18 -80 -12 -22 -44 -33 -75 -25 -43 11 -46 35 -15 104 16 34
32 62 37 62 5 0 20 -28 35 -61z m272 34 c7 -16 21 -45 30 -66 14 -36 14 -39
-4 -57 -25 -25 -61 -25 -91 -1 l-22 18 28 67 c16 36 33 66 37 66 4 0 14 -12
22 -27z m-44 -253 c0 -6 -47 -10 -120 -10 -73 0 -120 4 -120 10 0 6 47 10 120
10 73 0 120 -4 120 -10z"/>
<path d="M837 1225 l-17 -35 35 0 c19 0 35 2 35 5 0 8 -30 65 -33 65 -2 0 -11
-16 -20 -35z"/>
<path d="M1126 1231 c-21 -39 -18 -43 22 -39 l30 3 -18 34 -17 35 -17 -33z"/>
<path d="M405 724 c-39 -17 -132 -18 -138 -1 -3 9 -9 8 -22 -5 -27 -25 -9 -38
54 -38 l58 0 -95 -94 c-64 -62 -93 -98 -89 -109 5 -12 27 -14 136 -11 71 1
139 8 150 14 25 13 71 79 71 101 0 17 -19 29 -48 29 -23 0 -68 -39 -85 -73
-14 -26 -19 -28 -95 -32 l-80 -4 93 89 c52 49 105 96 119 105 45 30 23 52 -29
29z m68 -191 c-32 -40 -63 -55 -63 -29 0 8 16 31 35 52 27 28 38 35 47 26 9
-9 4 -21 -19 -49z"/>
<path d="M767 710 c-63 -55 -124 -203 -97 -235 18 -21 113 -15 140 10 19 18
20 18 20 -3 0 -14 6 -22 18 -22 24 0 62 28 62 46 0 19 -16 18 -24 -1 -5 -14
-36 -22 -36 -10 0 3 12 28 26 56 14 28 23 54 20 57 -3 3 -31 -23 -62 -57 -31
-34 -59 -60 -61 -57 -3 3 7 26 21 52 39 70 16 77 -25 7 -23 -38 -42 -59 -57
-61 -32 -5 -28 18 13 65 44 52 105 144 105 159 0 25 -31 22 -63 -6z m22 -22
c-20 -39 -72 -108 -77 -103 -5 5 16 40 55 93 28 37 39 42 22 10z"/>
<path d="M1135 714 c-11 -8 -35 -14 -54 -12 -40 3 -52 -15 -22 -32 15 -8 27
-8 42 1 23 12 23 9 -6 -38 -15 -24 -27 -33 -47 -33 -30 0 -40 -26 -13 -32 13
-2 11 -10 -10 -40 -28 -42 -31 -58 -11 -58 8 0 28 23 45 50 30 49 31 50 82 50
l51 0 -26 -44 c-29 -50 -32 -66 -13 -66 11 0 167 237 167 254 0 3 -7 6 -15 6
-8 0 -33 -27 -55 -60 -41 -60 -41 -60 -91 -60 -55 0 -55 -3 -7 67 15 23 28 46
28 52 0 15 -22 13 -45 -5z"/>
<path d="M1518 717 c-9 -6 -37 -51 -62 -99 -55 -101 -78 -132 -94 -127 -8 3
-3 22 13 58 14 30 23 56 20 59 -3 3 -30 -21 -60 -54 -56 -61 -70 -61 -34 0 11
19 17 40 14 47 -9 13 -60 -63 -70 -103 -10 -38 17 -48 55 -20 27 21 28 21 33
2 7 -28 64 -21 87 9 l16 23 17 -25 c14 -21 24 -25 64 -25 33 0 55 7 69 20 21
19 21 19 27 -1 8 -32 71 -26 87 7 l11 26 25 -27 c29 -32 54 -34 77 -9 24 26
23 50 -1 29 -23 -21 -36 -21 -51 -3 -10 12 -4 22 30 54 26 24 39 43 35 51 -5
8 -20 1 -47 -24 -48 -44 -56 -44 -31 -2 52 88 83 147 75 147 -18 0 -33 -19
-83 -110 -55 -98 -77 -130 -92 -130 -14 0 -9 24 17 73 36 67 9 62 -44 -8 -23
-30 -46 -55 -51 -55 -14 0 -13 5 10 50 42 82 15 77 -31 -6 -32 -55 -61 -70
-73 -37 -5 11 4 25 29 45 19 16 35 38 35 49 0 25 -8 24 -32 -6 -11 -14 -29
-30 -40 -36 -16 -8 -10 8 27 76 47 86 53 106 23 82z"/>
<path d="M541 543 c-50 -84 -35 -97 29 -25 25 29 49 52 53 52 5 0 6 -4 2 -9
-11 -19 17 -23 30 -5 20 26 19 54 -2 54 -9 0 -25 -8 -36 -17 -19 -17 -20 -17
-14 0 4 11 1 17 -8 17 -8 0 -32 -30 -54 -67z"/>
</g>
</svg>
